<?xml version="1.0" encoding="UTF-8"?>
<svg id="PNG" xmlns="http://www.w3.org/2000/svg" xmlns:xlink="http://www.w3.org/1999/xlink" viewBox="120 120 560 560">
  <defs>
    <style>
      .cls-1 {
        fill: url(#Gradiente_sem_nome_130);
      }
    </style>
    <linearGradient id="Gradiente_sem_nome_130" data-name="Gradiente sem nome 130" x1="158.72" y1="400" x2="641.28" y2="400" gradientUnits="userSpaceOnUse">
      <stop offset="0" stop-color="#00d0f9"/>
      <stop offset="1" stop-color="#0165ff"/>
    </linearGradient>
  </defs>
  <path class="cls-1" d="M400,158.72c-133.26,0-241.28,108.03-241.28,241.28,0,114.16,79.29,209.79,185.79,234.86,31.65-64.89,43.83-138.33,33.86-211.15,72.23,23.54,131.55,75.86,164.08,144.52-17.68,4.21-34.03,9.33-48.71,15.56,14.82.83,33.29,3.26,53.93,7.02,56.95-44.14,93.61-113.19,93.61-190.81,0-133.26-108.03-241.28-241.28-241.28ZM571.48,543.57c-35.13-40.55-62.09-85.4-82.61-134.03-14.91-35.32-36.47-64.44-66.84-88.32-35.07-27.59-76.3-45.46-119.95-55.54-2.04-.47-3.22.65-3.86,1.19-1.11.94-.51,2.4.46,3.72,21.92,30.01,29.84,63.2,29.65,103.1l40.52,7.27c-13.33,4.46-26.5,3.3-40.45,6.39-1.51,26.61-5.81,52.25-11.9,77.96-.77,3.23-.3,5.68,2.83,7.02l28.43,12.19-36.69,1.83c-10.2,33.63-21.25,66.11-36.36,98.66-112.99-76.29-131.47-235.48-39.86-335.58,45.36-49.56,108.93-75.87,176.75-72.66,82.62,3.92,155.82,54.7,189.92,126.37,38.03,79.94,26.41,171.64-30.04,240.43ZM392.65,641.16c2.44.07,4.89.12,7.35.12,6.19,0,12.32-.24,18.4-.69,10.25-36.7,13.18-75.28,8.16-113.58-2.6,40.47-14.33,79.42-33.91,114.15Z"/>
</svg>